<svg xmlns="http://www.w3.org/2000/svg" width="32" height="24" fill="none" viewBox="0 0 32 24"><path fill="#07F" d="M28 0H4C1.79086 0 0 1.79086 0 4V20C0 22.2091 1.79086 24 4 24H28C30.2091 24 32 22.2091 32 20V4C32 1.79086 30.2091 0 28 0Z"/><path fill="#fff" d="M32 8H0V11H32V8Z"/><g filter="url(#filter0_d)"><path fill="#fff" d="M10.5 8.78368L15.75 8.76489V16L13.125 14.0268L10.5 16V8.78368Z"/></g><g filter="url(#filter1_d)"><path fill="#fff" d="M13.0875 7.59818L17.9337 5.08417C18.3383 4.87429 18.8186 5.07043 19.0065 5.52225C19.056 5.6413 19.0817 5.77099 19.0817 5.90226V13.1311C19.0817 13.6293 18.72 14.0331 18.274 14.0331C18.1564 14.0331 18.0403 14.0045 17.9337 13.9492L13.0875 11.4352C12.8025 11.2873 12.6201 10.9681 12.6201 10.6171V8.41627C12.6201 8.06522 12.8025 7.74606 13.0875 7.59818Z"/></g><g filter="url(#filter2_d)"><path fill="#fff" d="M12.4557 7.59818L7.60951 5.08417C7.20495 4.87429 6.72465 5.07043 6.53673 5.52225C6.48721 5.6413 6.46156 5.77099 6.46156 5.90226V13.1311C6.46156 13.6293 6.82317 14.0331 7.26925 14.0331C7.38679 14.0331 7.50291 14.0045 7.60951 13.9492L12.4557 11.4352C12.7407 11.2873 12.9231 10.9681 12.9231 10.6171V8.41627C12.9231 8.06522 12.7407 7.74606 12.4557 7.59818Z"/></g><g filter="url(#filter3_d)"><path fill="#fff" d="M12.9232 14.0268C14.7075 14.0268 16.1539 12.4113 16.1539 10.4186C16.1539 8.42588 14.7075 6.81046 12.9232 6.81046C11.1388 6.81046 9.69238 8.42588 9.69238 10.4186C9.69238 12.4113 11.1388 14.0268 12.9232 14.0268Z"/></g><defs><filter id="filter0_d" width="7.25" height="9.235" x="9.5" y="8.765" color-interpolation-filters="sRGB" filterUnits="userSpaceOnUse"><feFlood flood-opacity="0" result="BackgroundImageFix"/><feColorMatrix in="SourceAlpha" type="matrix" values="0 0 0 0 0 0 0 0 0 0 0 0 0 0 0 0 0 0 127 0"/><feOffset dy="1"/><feGaussianBlur stdDeviation=".5"/><feColorMatrix type="matrix" values="0 0 0 0 0 0 0 0 0 0 0 0 0 0 0 0 0 0 0.2 0"/><feBlend in2="BackgroundImageFix" mode="normal" result="effect1_dropShadow"/><feBlend in="SourceGraphic" in2="effect1_dropShadow" mode="normal" result="shape"/></filter><filter id="filter1_d" width="8.462" height="11.033" x="11.62" y="5" color-interpolation-filters="sRGB" filterUnits="userSpaceOnUse"><feFlood flood-opacity="0" result="BackgroundImageFix"/><feColorMatrix in="SourceAlpha" type="matrix" values="0 0 0 0 0 0 0 0 0 0 0 0 0 0 0 0 0 0 127 0"/><feOffset dy="1"/><feGaussianBlur stdDeviation=".5"/><feColorMatrix type="matrix" values="0 0 0 0 0 0 0 0 0 0 0 0 0 0 0 0 0 0 0.2 0"/><feBlend in2="BackgroundImageFix" mode="normal" result="effect1_dropShadow"/><feBlend in="SourceGraphic" in2="effect1_dropShadow" mode="normal" result="shape"/></filter><filter id="filter2_d" width="8.462" height="11.033" x="5.462" y="5" color-interpolation-filters="sRGB" filterUnits="userSpaceOnUse"><feFlood flood-opacity="0" result="BackgroundImageFix"/><feColorMatrix in="SourceAlpha" type="matrix" values="0 0 0 0 0 0 0 0 0 0 0 0 0 0 0 0 0 0 127 0"/><feOffset dy="1"/><feGaussianBlur stdDeviation=".5"/><feColorMatrix type="matrix" values="0 0 0 0 0 0 0 0 0 0 0 0 0 0 0 0 0 0 0.2 0"/><feBlend in2="BackgroundImageFix" mode="normal" result="effect1_dropShadow"/><feBlend in="SourceGraphic" in2="effect1_dropShadow" mode="normal" result="shape"/></filter><filter id="filter3_d" width="8.462" height="9.216" x="8.692" y="6.81" color-interpolation-filters="sRGB" filterUnits="userSpaceOnUse"><feFlood flood-opacity="0" result="BackgroundImageFix"/><feColorMatrix in="SourceAlpha" type="matrix" values="0 0 0 0 0 0 0 0 0 0 0 0 0 0 0 0 0 0 127 0"/><feOffset dy="1"/><feGaussianBlur stdDeviation=".5"/><feColorMatrix type="matrix" values="0 0 0 0 0 0 0 0 0 0 0 0 0 0 0 0 0 0 0.2 0"/><feBlend in2="BackgroundImageFix" mode="normal" result="effect1_dropShadow"/><feBlend in="SourceGraphic" in2="effect1_dropShadow" mode="normal" result="shape"/></filter></defs></svg>