<svg xmlns="http://www.w3.org/2000/svg" xmlns:xlink="http://www.w3.org/1999/xlink" width="32" height="24" fill="none" viewBox="0 0 32 24"><filter id="a" width="24.5" height="23.75" x="3.75" y="1.5" color-interpolation-filters="sRGB" filterUnits="userSpaceOnUse"><feFlood flood-opacity="0" result="BackgroundImageFix"/><feColorMatrix in="SourceAlpha" type="matrix" values="0 0 0 0 0 0 0 0 0 0 0 0 0 0 0 0 0 0 127 0"/><feOffset dy="1"/><feGaussianBlur stdDeviation="2"/><feColorMatrix type="matrix" values="0 0 0 0 0 0 0 0 0 0 0 0 0 0 0 0 0 0 0.29563 0"/><feBlend in2="BackgroundImageFix" mode="normal" result="effect1_dropShadow"/><feBlend in="SourceGraphic" in2="effect1_dropShadow" mode="normal" result="shape"/></filter><linearGradient id="b"><stop offset="0" stop-color="#009a99"/><stop offset="1" stop-color="#006f84"/></linearGradient><linearGradient id="c" x1="22.71" x2="-4.16" y1="11.047" y2="13.636" gradientUnits="userSpaceOnUse" xlink:href="#b"/><linearGradient id="d" x1="28.758" x2="34.966" y1="-1.255" y2="10.177" gradientUnits="userSpaceOnUse" xlink:href="#b"/><linearGradient id="e" x1="17.284" x2="15.973" y1="6.512" y2=".337" gradientUnits="userSpaceOnUse"><stop offset="0" stop-color="#0ca69c"/><stop offset="1" stop-color="#006f7c"/></linearGradient><linearGradient id="f" x1="11.287" x2="3.14" y1="12.951" y2="-.273" gradientUnits="userSpaceOnUse" xlink:href="#b"/><linearGradient id="g" x1="12.387" x2="14.099" y1="17.48" y2="25.584" gradientUnits="userSpaceOnUse"><stop offset="0" stop-color="#009eb6"/><stop offset="1" stop-color="#05b098"/></linearGradient><mask id="h" width="32" height="24" x="0" y="0" maskUnits="userSpaceOnUse"><path fill="#fff" d="m26.3997 0h-20.79945c-3.09293 0-5.60025 2.50732-5.60025 5.60025v12.79945c0 3.093 2.50732 5.6003 5.60025 5.6003h20.79945c3.093 0 5.6003-2.5073 5.6003-5.6003v-12.79945c0-3.09293-2.5073-5.60025-5.6003-5.60025z"/></mask><g mask="url(#h)"><path fill="url(#c)" d="m33.5005-.633759h-35.60023v24.699759h35.60023z"/><path fill="url(#d)" d="m47.1667 0-14.0667 24.3333c-1.7 2.9334-5.9333 2.9334-7.6 0l-9.6666-16.69997 4.4666-7.63333z"/><path fill="url(#e)" d="m20.2998 0-4.4333 7.6335-4.3995-7.6335z"/><path fill="url(#f)" d="m11.4667 0 4.4 7.63333-4.4 7.63337c-1.53329 2.6666-5.43329 2.6666-6.96662 0l-8.83333-15.2667z"/><path fill="url(#g)" d="m6.73329 36.1h18.06671c2.0333 0 3.3-2.2 2.3-3.9667l-9.0667-15.6333c-1.0333-1.7667-3.5667-1.7667-4.5667 0l-9.03331 15.6333c-1 1.7667.26666 3.9667 2.3 3.9667z"/><g filter="url(#a)"><path fill="#000" d="m7.75 6.39975 1.5-1.89975h13.083l1.917 1.89975-7.5 13.85025h-1.917z"/></g><path fill="#20419a" d="m7.75 6.39975 1.5-1.89975h13.083l1.917 1.89975-7.5 13.85025h-1.917z"/><path fill="#fff" d="m21.0647 11.6969c-.1515.2625-.4298.4256-.7307.4246-.301-.0009-.5793-.163-.7303-.427l-2.6118-4.5915c-.2324-.40697-.0932-.92824.3109-1.16305.4037-.23433.9186-.09373 1.1505.31372 0 0 1.1277 1.98083 1.8845 3.31222.7619-1.32852 1.8962-3.30553 1.8962-3.30553.2334-.40649.7497-.54613 1.1529-.31037.4022.2372.5395.758.3057 1.16497zm-4.3624 7.6134c-.151.2635-.4293.4247-.7307.4242-.301-.0005-.5793-.1636-.7293-.4266l-2.6128-4.591c-.2314-.4084-.0927-.9282.3114-1.1635.4037-.2344.9191-.0933 1.1505.3137 0 0 1.1277 1.9808 1.8844 3.3117.7629-1.3285 1.8959-3.3045 1.8959-3.3045.2338-.4075.7496-.5457 1.1523-.3099.4028.2357.54.757.3067 1.1635zm-5.8214-7.5661-2.61233-4.59098c-.23236-.40793-.0937-.92872.30998-1.16353.40368-.23386.91904-.09374 1.15046.31419 0 0 1.12779 1.98035 1.88589 3.31222.7614-1.329 1.8949-3.306 1.8949-3.306.2347-.4065.7501-.54566 1.1523-.30941.4032.23672.5405.75751.3067 1.16401l-2.6279 4.5819c-.151.2635-.4302.4256-.7312.4247-.301-.0005-.5788-.1636-.7288-.4271zm11.9333-7.2442h-13.62848c-.7747 0-1.49167.41415-1.88399 1.08893-.39279.67478-.40273 1.50881-.02603 2.19316l6.651 12.08291c.3819.6935 1.1027 1.1263 1.8878 1.1349.7851.0081 1.5144-.4099 1.9105-1.0952l6.977-12.08292c.3947-.68339.3975-1.52746.0071-2.21324-.3895-.68531-1.1121-1.10854-1.8949-1.10854z"/></g></svg>