<svg xmlns="http://www.w3.org/2000/svg" width="32" height="24" fill="none" viewBox="0 0 32 24"><path fill="#fff" stroke="#E6E6E6" d="M4.12903 0.5H27.871C29.8701 0.5 31.5 2.13976 31.5 4.17391V19.8261C31.5 21.8602 29.8701 23.5 27.871 23.5H4.12903C2.12986 23.5 0.5 21.8602 0.5 19.8261V4.17391C0.5 2.13976 2.12986 0.5 4.12903 0.5Z"/><path fill="#E7001A" d="M5.16129 10.4348C8.01179 10.4348 10.3226 8.09888 10.3226 5.21739C10.3226 2.33591 8.01179 0 5.16129 0C2.31079 0 0 2.33591 0 5.21739C0 8.09888 2.31079 10.4348 5.16129 10.4348Z" transform="translate(7.74194 6.78259)"/><path fill="#00A2E1" d="M5.16129 10.4348C8.01179 10.4348 10.3226 8.09888 10.3226 5.21739C10.3226 2.33591 8.01179 0 5.16129 0C2.31079 0 0 2.33591 0 5.21739C0 8.09888 2.31079 10.4348 5.16129 10.4348Z" transform="translate(13.9355 6.78259)"/><path fill="#E7001A" fill-rule="evenodd" d="M2.06452 0C3.31814 0.951867 4.12903 2.46735 4.12903 4.17429C4.12903 5.88124 3.31814 7.39672 2.06452 8.34859C0.810894 7.39672 0 5.88124 0 4.17429C0 2.46735 0.810894 0.951867 2.06452 0Z" clip-rule="evenodd" opacity=".3" transform="translate(13.9355 7.82568)"/></svg>