<svg xmlns="http://www.w3.org/2000/svg" xmlns:xlink="http://www.w3.org/1999/xlink" width="32" height="24" fill="none" viewBox="0 0 32 24"><filter id="a" width="7.25" height="9.235" x="9.5" y="8.765" color-interpolation-filters="sRGB" filterUnits="userSpaceOnUse"><feFlood flood-opacity="0" result="BackgroundImageFix"/><feColorMatrix in="SourceAlpha" type="matrix" values="0 0 0 0 0 0 0 0 0 0 0 0 0 0 0 0 0 0 255 0"/><feOffset dy="1"/><feGaussianBlur stdDeviation=".5"/><feColorMatrix type="matrix" values="0 0 0 0 0 0 0 0 0 0 0 0 0 0 0 0 0 0 0.2 0"/><feBlend in2="BackgroundImageFix" mode="normal" result="effect1_dropShadow"/><feBlend in="SourceGraphic" in2="effect1_dropShadow" mode="normal" result="shape"/></filter><filter id="b" width="8.462" height="11.033" x="11.62" y="5" color-interpolation-filters="sRGB" filterUnits="userSpaceOnUse"><feFlood flood-opacity="0" result="BackgroundImageFix"/><feColorMatrix in="SourceAlpha" type="matrix" values="0 0 0 0 0 0 0 0 0 0 0 0 0 0 0 0 0 0 255 0"/><feOffset dy="1"/><feGaussianBlur stdDeviation=".5"/><feColorMatrix type="matrix" values="0 0 0 0 0 0 0 0 0 0 0 0 0 0 0 0 0 0 0.2 0"/><feBlend in2="BackgroundImageFix" mode="normal" result="effect1_dropShadow"/><feBlend in="SourceGraphic" in2="effect1_dropShadow" mode="normal" result="shape"/></filter><filter id="c" width="8.462" height="11.033" x="5.462" y="5" color-interpolation-filters="sRGB" filterUnits="userSpaceOnUse"><feFlood flood-opacity="0" result="BackgroundImageFix"/><feColorMatrix in="SourceAlpha" type="matrix" values="0 0 0 0 0 0 0 0 0 0 0 0 0 0 0 0 0 0 255 0"/><feOffset dy="1"/><feGaussianBlur stdDeviation=".5"/><feColorMatrix type="matrix" values="0 0 0 0 0 0 0 0 0 0 0 0 0 0 0 0 0 0 0.2 0"/><feBlend in2="BackgroundImageFix" mode="normal" result="effect1_dropShadow"/><feBlend in="SourceGraphic" in2="effect1_dropShadow" mode="normal" result="shape"/></filter><filter id="d" width="8.462" height="9.216" x="8.692" y="6.81" color-interpolation-filters="sRGB" filterUnits="userSpaceOnUse"><feFlood flood-opacity="0" result="BackgroundImageFix"/><feColorMatrix in="SourceAlpha" type="matrix" values="0 0 0 0 0 0 0 0 0 0 0 0 0 0 0 0 0 0 255 0"/><feOffset dy="1"/><feGaussianBlur stdDeviation=".5"/><feColorMatrix type="matrix" values="0 0 0 0 0 0 0 0 0 0 0 0 0 0 0 0 0 0 0.2 0"/><feBlend in2="BackgroundImageFix" mode="normal" result="effect1_dropShadow"/><feBlend in="SourceGraphic" in2="effect1_dropShadow" mode="normal" result="shape"/></filter><linearGradient id="e" x2="1" gradientTransform="matrix(32 24 -32 42.6667 16 -21.3333)" gradientUnits="userSpaceOnUse"><stop offset="0" stop-color="#00b2ff"/><stop offset=".806" stop-color="#007eff"/><stop offset="1" stop-color="#0072ff"/></linearGradient><path fill="url(#e)" d="m28 0h-24c-2.20914 0-4 1.79086-4 4v16c0 2.2091 1.79086 4 4 4h24c2.2091 0 4-1.7909 4-4v-16c0-2.20914-1.7909-4-4-4z"/><path fill="#fff" d="m32 0h-32v3h32z" transform="translate(0 8)"/><g filter="url(#a)"><path fill="#fff" d="m0 .0187923 5.25-.0187923v7.23511l-2.625-1.97321-2.625 1.97321z" transform="translate(10.5 8.76489)"/></g><g filter="url(#b)"><path fill="#fff" d="m.467432 2.59818 4.846158-2.5140137c.40456-.2098723.88486-.0137359 1.07278.4380827.04952.119052.07517.248739.07517.380007v7.228834c0 .49818-.36162.90204-.80769.90204-.11754 0-.23366-.02865-.34026-.08395l-4.846158-2.51401c-.285074-.14789-.467432-.46705-.467432-.81809v-2.20081c0-.35105.182358-.67021.467432-.81809z" transform="translate(12.6201 5)"/></g><g filter="url(#c)"><path fill="#fff" d="m.467432 2.59818 4.846158-2.5140137c.40456-.2098723.88486-.0137359 1.07278.4380827.04951.119052.07517.248739.07517.380007v7.228834c0 .49818-.36162.90204-.80769.90204-.11754 0-.23366-.02865-.34026-.08395l-4.846158-2.51401c-.285074-.14789-.467432-.46705-.467432-.81809v-2.20081c0-.35105.182358-.67021.467432-.81809z" transform="matrix(-1 0 0 1 12.9231 5)"/></g><g filter="url(#d)"><path fill="#fff" d="m3.23077 7.21632c1.7843 0 3.23077-1.61543 3.23077-3.60816s-1.44647-3.60816-3.23077-3.60816c-1.78431 0-3.23077 1.61543-3.23077 3.60816s1.44646 3.60816 3.23077 3.60816z" transform="translate(9.69238 6.81046)"/></g></svg>